<?xml version="1.0" encoding="UTF-8" standalone="no"?>
<svg
   width="67.630005"
   height="45"
   viewBox="0 0 67.630005 45"
   fill="none"
   version="1.1"
   id="svg2636"
   sodipodi:docname="Listing Page.svg.2024_02_29_09_25_35.0.svg"
   xmlns:inkscape="http://www.inkscape.org/namespaces/inkscape"
   xmlns:sodipodi="http://sodipodi.sourceforge.net/DTD/sodipodi-0.dtd"
   xmlns="http://www.w3.org/2000/svg"
   xmlns:svg="http://www.w3.org/2000/svg">
  <sodipodi:namedview
     id="namedview2638"
     pagecolor="#ffffff"
     bordercolor="#000000"
     borderopacity="0.25"
     inkscape:showpageshadow="2"
     inkscape:pageopacity="0.0"
     inkscape:pagecheckerboard="0"
     inkscape:deskcolor="#d1d1d1"
     showgrid="false" />
  <g
     clip-path="url(#clip0_4_3708)"
     id="g1237"
     transform="translate(-1024,-1011)">
    <g
       clip-path="url(#clip6_4_3708)"
       id="g394">
      <path
         fill-rule="evenodd"
         clip-rule="evenodd"
         d="m 1045.93,1040.29 -2.75,-4.58 -2.32,-3.86 -9.86,5.92 1.51,2.52 z m 22.82,0 h 13.42 l -17.6,-29.29 -9.85,5.92 z m -4.7,4.59 c -0.94,-0.61 -2.05,-0.97 -3.25,-0.97 h -0.03 c -3.32,0.02 -6.02,2.73 -6.02,6.04 0,3.32 2.7,6.03 6.02,6.05 h 0.03 c 1.2,0 2.31,-0.36 3.25,-0.97 v 0.63 h 2.78 v -15.37 h -2.78 z m 0,5.71 c -0.29,1.52 -1.64,2.69 -3.25,2.69 h -0.03 c -1.82,-0.02 -3.3,-1.5 -3.3,-3.33 0,-1.82 1.48,-3.3 3.3,-3.31 h 0.03 c 1.61,0 2.96,1.16 3.25,2.68 z m 13.05,-5.71 c -0.97,-0.63 -2.1,-0.97 -3.26,-0.97 h -0.03 c -3.31,0.02 -6.01,2.73 -6.01,6.04 0,3.32 2.7,6.03 6.01,6.05 h 0.03 c 1.2,0 2.32,-0.36 3.26,-0.97 v 0.63 h 2.78 v -11.44 h -2.78 z m 0,5.71 c -0.29,1.52 -1.65,2.69 -3.26,2.69 h -0.03 c -1.82,-0.02 -3.29,-1.5 -3.29,-3.33 0,-1.82 1.47,-3.3 3.29,-3.31 h 0.03 c 1.61,0 2.96,1.16 3.26,2.68 z m 12.66,-1.39 c -0.1,-0.05 -0.24,-0.1 -0.41,-0.16 -0.62,-0.21 -1.63,-0.48 -3.03,-0.78 -1.23,-0.28 -1.85,-0.64 -1.85,-1.08 0,-0.32 0.11,-0.57 0.32,-0.76 0.29,-0.24 0.8,-0.36 1.53,-0.36 0.74,0 1.28,0.16 1.6,0.48 0.19,0.19 0.33,0.53 0.42,1.02 h 2.96 c 0,-1.44 -0.59,-2.48 -1.75,-3.11 -0.07,-0.04 -0.13,-0.07 -0.2,-0.1 -0.8,-0.38 -1.87,-0.57 -3.2,-0.57 -1.62,0 -2.84,0.43 -3.66,1.29 -0.65,0.69 -0.96,1.54 -0.96,2.53 0,1.25 0.61,2.14 1.85,2.72 0.47,0.23 1.61,0.54 3.42,0.93 1.21,0.26 1.82,0.64 1.82,1.12 0,0.28 -0.12,0.53 -0.39,0.75 -0.33,0.29 -0.84,0.43 -1.52,0.43 -0.91,0 -1.55,-0.15 -1.93,-0.45 -0.37,-0.28 -0.57,-0.7 -0.57,-1.23 h -3.09 c 0,1.4 0.59,2.45 1.78,3.14 0.95,0.54 2.19,0.82 3.73,0.82 1.02,0 1.94,-0.18 2.72,-0.51 0.17,-0.07 0.31,-0.14 0.46,-0.23 1.21,-0.67 1.82,-1.74 1.82,-3.2 0,-1.2 -0.62,-2.1 -1.87,-2.69 z m -56.46,-4.32 c -0.97,-0.63 -2.11,-0.97 -3.27,-0.97 H 1030 c -3.3,0.02 -6,2.73 -6,6.04 0,3.32 2.7,6.03 6,6.05 h 0.03 c 1.21,0 2.32,-0.36 3.27,-0.97 v 0.63 h 2.78 v -11.44 h -2.78 z m 0,5.71 c -0.29,1.52 -1.65,2.69 -3.27,2.69 H 1030 c -1.81,-0.02 -3.28,-1.5 -3.28,-3.33 0,-1.82 1.47,-3.3 3.28,-3.31 h 0.03 c 1.62,0 2.98,1.16 3.27,2.68 z m 17.34,-7.59 h 3.02 v -2.65 h -3.02 z m 0,12.66 h 3.02 v -11.75 h -3.02 z m -4.16,-10.78 c -0.97,-0.63 -2.11,-0.97 -3.27,-0.97 h -0.03 c -3.32,0.02 -6.01,2.73 -6.01,6.04 0,3.32 2.69,6.03 6.01,6.05 h 0.03 c 1.16,0 2.3,-0.34 3.27,-0.97 v 0.63 h 2.78 v -15.37 h -2.78 z m 0,5.71 c -0.3,1.52 -1.65,2.69 -3.27,2.69 h -0.03 c -1.82,-0.02 -3.29,-1.5 -3.29,-3.33 0,-1.82 1.47,-3.3 3.29,-3.31 h 0.03 c 1.62,0 2.97,1.16 3.27,2.68 z m 17.56,-10.3 -3.27,-5.48 -8.05,-13.39 -9.54,5.74 -0.32,0.19 0.32,0.54 7.45,12.4 z"
         fill="#bbc0d0"
         id="path312" />
    </g>
    <mask
       id="mask0_4_3708"
       maskUnits="userSpaceOnUse"
       x="924"
       y="2968"
       width="101"
       height="138">
      <path
         d="m 938.506,3056.31 c 0.319,-6.16 1.009,-19.82 1.214,-25.13 0.255,-6.64 0.425,-14.56 -1.703,-24.87 -2.129,-10.3 7.237,-12.6 7.663,-5.96 0.426,6.64 -0.511,12.78 -0.511,16.35 0,3.58 0.332,8.21 0.166,10.21 -0.166,2.01 -0.566,4.51 0,4.46 0.566,-0.05 1.251,-0.87 1.959,1.02 0.708,1.88 3.303,8.18 4.814,15.57 0.736,3.27 1.015,4.24 1.062,4.32 0.157,-0.13 0.524,-0.15 0.731,0.87 0.26,1.28 1.345,4.44 1.511,5.38 0.132,0.76 0.275,-0.01 0.33,-0.49 0.417,-3.35 1.251,-10.52 1.251,-12.39 0,-2.34 -0.897,-10.53 -1.605,-13.74 -0.708,-3.21 -2.596,-10.64 -0.519,-13.52 2.077,-2.88 5.38,-3.59 7.056,0.62 1.675,4.2 1.274,17.88 1.227,21.02 -0.047,3.14 0.236,13.97 0.684,17.25 0.449,3.28 2.384,12.98 3.068,14.66 0.548,1.34 0.858,1.85 0.944,1.93 1.062,-1.57 3.431,-4.75 4.413,-4.91 1.227,-0.18 2.454,0.55 3.634,3.33 0.944,2.23 1.935,4.63 2.313,5.55 0.283,-0.68 1.01,-1.82 1.652,-0.95 0.642,0.87 1.73,2.35 2.195,2.98 1.29,-1.95 3.898,-5.87 4.011,-6 0.142,-0.16 0.59,0.19 0.118,1.8 -0.377,1.28 0.048,1.35 0.307,1.22 0.614,-1.9 1.855,-6.15 1.912,-7.93 0.07,-2.21 1.109,-7.03 3.233,-11.98 2.124,-4.96 3.422,-13.71 3.917,-17.25 0.397,-2.84 0.842,-13.63 1.015,-18.67 0.338,-4.22 0.845,-13.33 0.165,-16.05 -0.85,-3.4 -4.059,-14.3 -4.885,-19.07 -0.826,-4.76 -2.029,-9.06 3.327,-15.55 4.286,-5.19 8.125,2.24 9.515,6.61 0.28,2.74 0.57,9.45 -0.52,14.4 -1.37,6.18 -3.07,15.55 -2.67,21.19 0.4,5.64 1.39,21.73 1.82,25.74 0.42,4.01 2.17,14.59 4.6,23.06 2.43,8.47 5.99,16.12 6.54,19.23 0.54,3.12 1.1,4.41 1.6,4.84 0.5,0.42 0.57,0.73 2.29,-0.21 1.72,-0.95 2.9,-0.17 3.94,2.83 1.04,3 2.31,11.63 2.64,15.57 0.27,3.16 -65.521,1.32 -98.449,0 h -1.571 c 0.57,-1.03 1.809,-3.53 2.209,-5.26 0.5,-2.16 1.661,-10.26 2.112,-13.27 0.452,-3.02 1.338,-7.89 2.564,-7.55 1.225,0.34 1.805,1.18 2.192,0.95 0.387,-0.22 1.145,-0.82 0.968,-1.9 -0.178,-1.08 0.741,-7.9 1.338,-11.58 0.596,-3.67 1.499,-6.82 1.79,-7.35 0.29,-0.53 0.423,-0.43 0.423,-0.77 z"
         fill="#c4c4c4"
         id="path514" />
    </mask>
  </g>
  <defs
     id="defs2634">
    <clipPath
       id="clip0_4_3708">
      <rect
         width="1920"
         height="7586"
         rx="20"
         fill="#ffffff"
         id="rect2481"
         x="0"
         y="0" />
    </clipPath>
    <clipPath
       id="clip6_4_3708">
      <rect
         width="1920"
         height="1191"
         fill="#ffffff"
         id="rect2499"
         x="0"
         y="0" />
    </clipPath>
  </defs>
</svg>
