<?xml version="1.0" encoding="UTF-8" standalone="no"?>
<svg
   width="31.973389"
   height="32.007324"
   viewBox="0 0 31.973389 32.007324"
   fill="none"
   version="1.1"
   id="svg585"
   sodipodi:docname="Listing Page.svg"
   xmlns:inkscape="http://www.inkscape.org/namespaces/inkscape"
   xmlns:sodipodi="http://sodipodi.sourceforge.net/DTD/sodipodi-0.dtd"
   xmlns="http://www.w3.org/2000/svg"
   xmlns:svg="http://www.w3.org/2000/svg">
  <sodipodi:namedview
     id="namedview585"
     pagecolor="#ffffff"
     bordercolor="#000000"
     borderopacity="0.25"
     inkscape:showpageshadow="2"
     inkscape:pageopacity="0.0"
     inkscape:pagecheckerboard="0"
     inkscape:deskcolor="#d1d1d1" />
  <g
     clip-path="url(#clip0_4_3708)"
     id="g353"
     transform="translate(-1062.0166,-5867.9961)">
    <mask
       id="mask0_4_3708"
       maskUnits="userSpaceOnUse"
       x="924"
       y="2968"
       width="101"
       height="138">
      <path
         d="m 938.506,3056.31 c 0.319,-6.16 1.009,-19.82 1.214,-25.13 0.255,-6.64 0.425,-14.56 -1.703,-24.87 -2.129,-10.3 7.237,-12.6 7.663,-5.96 0.426,6.64 -0.511,12.78 -0.511,16.35 0,3.58 0.332,8.21 0.166,10.21 -0.166,2.01 -0.566,4.51 0,4.46 0.566,-0.05 1.251,-0.87 1.959,1.02 0.708,1.88 3.303,8.18 4.814,15.57 0.736,3.27 1.015,4.24 1.062,4.32 0.157,-0.13 0.524,-0.15 0.731,0.87 0.26,1.28 1.345,4.44 1.511,5.38 0.132,0.76 0.275,-0.01 0.33,-0.49 0.417,-3.35 1.251,-10.52 1.251,-12.39 0,-2.34 -0.897,-10.53 -1.605,-13.74 -0.708,-3.21 -2.596,-10.64 -0.519,-13.52 2.077,-2.88 5.38,-3.59 7.056,0.62 1.675,4.2 1.274,17.88 1.227,21.02 -0.047,3.14 0.236,13.97 0.684,17.25 0.449,3.28 2.384,12.98 3.068,14.66 0.548,1.34 0.858,1.85 0.944,1.93 1.062,-1.57 3.431,-4.75 4.413,-4.91 1.227,-0.18 2.454,0.55 3.634,3.33 0.944,2.23 1.935,4.63 2.313,5.55 0.283,-0.68 1.01,-1.82 1.652,-0.95 0.642,0.87 1.73,2.35 2.195,2.98 1.29,-1.95 3.898,-5.87 4.011,-6 0.142,-0.16 0.59,0.19 0.118,1.8 -0.377,1.28 0.048,1.35 0.307,1.22 0.614,-1.9 1.855,-6.15 1.912,-7.93 0.07,-2.21 1.109,-7.03 3.233,-11.98 2.124,-4.96 3.422,-13.71 3.917,-17.25 0.397,-2.84 0.842,-13.63 1.015,-18.67 0.338,-4.22 0.845,-13.33 0.165,-16.05 -0.85,-3.4 -4.059,-14.3 -4.885,-19.07 -0.826,-4.76 -2.029,-9.06 3.327,-15.55 4.286,-5.19 8.125,2.24 9.515,6.61 0.28,2.74 0.57,9.45 -0.52,14.4 -1.37,6.18 -3.07,15.55 -2.67,21.19 0.4,5.64 1.39,21.73 1.82,25.74 0.42,4.01 2.17,14.59 4.6,23.06 2.43,8.47 5.99,16.12 6.54,19.23 0.54,3.12 1.1,4.41 1.6,4.84 0.5,0.42 0.57,0.73 2.29,-0.21 1.72,-0.95 2.9,-0.17 3.94,2.83 1.04,3 2.31,11.63 2.64,15.57 0.27,3.16 -65.521,1.32 -98.449,0 h -1.571 c 0.57,-1.03 1.809,-3.53 2.209,-5.26 0.5,-2.16 1.661,-10.26 2.112,-13.27 0.452,-3.02 1.338,-7.89 2.564,-7.55 1.225,0.34 1.805,1.18 2.192,0.95 0.387,-0.22 1.145,-0.82 0.968,-1.9 -0.178,-1.08 0.741,-7.9 1.338,-11.58 0.596,-3.67 1.499,-6.82 1.79,-7.35 0.29,-0.53 0.423,-0.43 0.423,-0.77 z"
         fill="#c4c4c4"
         id="path151" />
    </mask>
    <g
       clip-path="url(#clip17_4_3708)"
       id="g212">
      <path
         d="m 1077.6,5886.32 4.82,-4.93 c 0.48,-0.49 1.27,-0.5 1.76,-0.02 0.5,0.48 0.5,1.27 0.02,1.77 0,0 -4.84,4.95 -4.84,4.95 -0.75,0.73 -1.72,1.1 -2.68,1.1 -0.99,0 -1.98,-0.38 -2.73,-1.14 -0.71,-0.73 -1.1,-1.69 -1.09,-2.71 0.01,-1.02 0.41,-1.98 1.14,-2.7 l 4.93,-4.89 c 0.49,-0.48 1.28,-0.48 1.77,0.01 0.49,0.49 0.48,1.28 -0.01,1.77 l -4.94,4.89 c -0.25,0.25 -0.39,0.58 -0.4,0.94 -0.02,0.71 0.6,1.34 1.32,1.33 0.35,0 0.68,-0.13 0.93,-0.37 z m 0.49,13.68 c -0.03,0 0.02,0 0,0 z m 15.74,-18.22 c -0.1,-0.69 -0.73,-1.16 -1.41,-1.07 -0.68,0.1 -1.16,0.73 -1.06,1.41 0.09,0.65 0.13,1.31 0.13,1.96 0,0.69 -0.06,1.38 -0.17,2.05 -0.06,0.39 -0.28,0.72 -0.62,0.93 -0.35,0.21 -0.77,0.25 -1.16,0.12 -0.76,-0.26 -1.56,-0.38 -2.37,-0.35 -3.45,0.11 -6.23,2.9 -6.35,6.35 -0.03,0.81 0.09,1.61 0.35,2.37 0.13,0.39 0.09,0.81 -0.12,1.16 -0.2,0.34 -0.54,0.56 -0.93,0.62 -0.67,0.11 -1.36,0.17 -2.05,0.17 -7.24,0.16 -13.72,-6.23 -13.56,-13.49 -0.15,-7.25 6.24,-13.64 13.49,-13.49 0.75,0 1.5,0.07 2.23,0.19 0.68,0.11 1.32,-0.35 1.44,-1.03 0.11,-0.68 -0.35,-1.32 -1.03,-1.44 -9.55,-1.74 -18.77,6.06 -18.62,15.77 -0.19,8.61 7.48,16.18 16.07,15.99 0.81,-0.01 1.62,-0.07 2.42,-0.2 2.32,-0.32 3.83,-2.87 3.02,-5.06 -0.92,-2.52 1.04,-5.37 3.72,-5.42 0.51,-0.02 1.01,0.06 1.48,0.22 1.09,0.37 2.28,0.25 3.26,-0.34 0.97,-0.58 1.62,-1.56 1.8,-2.68 0.13,-0.8 0.19,-1.61 0.2,-2.42 0,-0.78 -0.05,-1.56 -0.16,-2.32 z m -1.36,-5.2 c 0.92,-1.62 1.52,-3.74 1.52,-5.4 0,-1.13 -0.62,-2.22 -1.57,-2.78 -0.82,-0.48 -1.76,-0.5 -2.58,-0.05 -0.91,0.5 -1.75,0.79 -2.57,1.07 -1.38,0.46 -2.8,0.94 -3.98,2.36 -0.87,1.04 -1.27,2.36 -1.14,3.71 0.19,2.56 2.52,4.63 5.08,4.59 2.09,0 3.95,-1.25 5.24,-3.5 z m -1.31,-6.03 c 0.16,0.1 0.33,0.35 0.33,0.63 0,1.03 -0.37,2.72 -1.19,4.16 -0.89,1.68 -2.84,3.1 -4.74,1.65 -0.53,-0.44 -0.86,-1.06 -0.93,-1.74 -0.06,-0.68 0.14,-1.34 0.58,-1.87 0.73,-0.88 1.62,-1.18 2.86,-1.6 0.88,-0.3 1.88,-0.63 2.98,-1.24 0.01,-0.01 0.02,-0.02 0.03,-0.02 0.02,0 0.04,0.01 0.08,0.03 z m -11.85,4.03 c 0,0.86 -0.7,1.56 -1.56,1.56 -2.07,-0.07 -2.07,-3.04 0,-3.12 0.86,0 1.56,0.7 1.56,1.56 z m -5.62,2.44 c 0,0.86 -0.7,1.56 -1.56,1.56 -2.07,-0.08 -2.07,-3.05 0,-3.12 0.86,0 1.56,0.7 1.56,1.56 z m -3.31,4.93 c 0,0.86 -0.7,1.56 -1.56,1.56 -2.07,-0.08 -2.07,-3.04 0,-3.12 0.86,0 1.56,0.7 1.56,1.56 z m -0.68,4.31 c 0.86,0 1.56,0.7 1.56,1.56 -0.08,2.07 -3.05,2.07 -3.12,0 0,-0.86 0.69,-1.56 1.56,-1.56 z"
         fill="#ffffff"
         id="path212" />
    </g>
  </g>
  <defs
     id="defs585">
    <clipPath
       id="clip0_4_3708">
      <rect
         width="1920"
         height="7586"
         rx="20"
         fill="#ffffff"
         id="rect558"
         x="0"
         y="0" />
    </clipPath>
    <clipPath
       id="clip17_4_3708">
      <rect
         width="32"
         height="32"
         fill="#ffffff"
         transform="translate(1062,5868)"
         id="rect575"
         x="0"
         y="0" />
    </clipPath>
  </defs>
</svg>
