<?xml version="1.0" encoding="UTF-8" standalone="no"?>
<svg
   width="16.659912"
   height="20"
   viewBox="0 0 16.659912 20"
   fill="none"
   version="1.1"
   id="svg821"
   sodipodi:docname="Details Page.svg"
   xmlns:inkscape="http://www.inkscape.org/namespaces/inkscape"
   xmlns:sodipodi="http://sodipodi.sourceforge.net/DTD/sodipodi-0.dtd"
   xmlns="http://www.w3.org/2000/svg"
   xmlns:svg="http://www.w3.org/2000/svg">
  <sodipodi:namedview
     id="namedview823"
     pagecolor="#ffffff"
     bordercolor="#000000"
     borderopacity="0.25"
     inkscape:showpageshadow="2"
     inkscape:pageopacity="0.0"
     inkscape:pagecheckerboard="0"
     inkscape:deskcolor="#d1d1d1"
     showgrid="false" />
  <g
     clip-path="url(#clip2_4_4133)"
     id="g36"
     transform="translate(-1647.67,-384)">
    <path
       d="m 1656.83,400.667 c 1.11,-0.002 2.17,-0.441 2.95,-1.222 0.78,-0.781 1.22,-1.84 1.22,-2.945 v -7.297 c 0,-0.439 -0.08,-0.872 -0.25,-1.277 -0.17,-0.405 -0.42,-0.772 -0.73,-1.081 l -1.86,-1.868 c -0.31,-0.311 -0.68,-0.557 -1.09,-0.725 -0.4,-0.168 -0.83,-0.253 -1.27,-0.252 h -3.97 c -1.1,10e-4 -2.16,0.441 -2.94,1.222 -0.78,0.781 -1.22,1.84 -1.22,2.945 v 8.333 c 0,1.105 0.44,2.164 1.22,2.945 0.78,0.781 1.84,1.22 2.94,1.222 z m -7.5,-4.167 v -8.333 c 0,-0.663 0.27,-1.299 0.74,-1.768 0.46,-0.469 1.1,-0.732 1.76,-0.732 0,0 4.1,0.011 4.17,0.02 v 1.646 c 0,0.442 0.18,0.866 0.49,1.179 0.31,0.312 0.73,0.488 1.18,0.488 h 1.64 c 0.01,0.068 0.02,7.5 0.02,7.5 0,0.663 -0.26,1.299 -0.73,1.768 -0.47,0.469 -1.1,0.732 -1.77,0.732 h -5 c -0.66,0 -1.3,-0.263 -1.76,-0.732 -0.47,-0.469 -0.74,-1.105 -0.74,-1.768 z m 15,-5.833 v 9.166 c 0,1.105 -0.44,2.164 -1.22,2.945 -0.78,0.781 -1.84,1.221 -2.94,1.222 h -7.5 c -0.22,0 -0.44,-0.088 -0.59,-0.244 -0.16,-0.156 -0.25,-0.368 -0.25,-0.589 0,-0.221 0.09,-0.433 0.25,-0.59 0.15,-0.156 0.37,-0.244 0.59,-0.244 h 7.5 c 0.66,0 1.3,-0.263 1.76,-0.732 0.47,-0.469 0.74,-1.105 0.74,-1.768 v -9.166 c 0,-0.221 0.08,-0.433 0.24,-0.59 0.16,-0.156 0.37,-0.244 0.59,-0.244 0.22,0 0.43,0.088 0.59,0.244 0.16,0.157 0.24,0.369 0.24,0.59 z"
       fill="#7780a1"
       id="path34" />
  </g>
  <defs
     id="defs819">
    <clipPath
       id="clip2_4_4133">
      <rect
         width="20"
         height="20"
         fill="#ffffff"
         transform="translate(1646,384)"
         id="rect786"
         x="0"
         y="0" />
    </clipPath>
  </defs>
</svg>
