<?xml version="1.0" encoding="UTF-8" standalone="no"?>
<svg
   width="20"
   height="20"
   viewBox="0 0 20 20"
   fill="none"
   version="1.1"
   id="svg821"
   xmlns="http://www.w3.org/2000/svg"
   xmlns:svg="http://www.w3.org/2000/svg">
  <path
     d="M 18,0 H 2 C 0.895,0 0,0.9 0,2 v 16 c 0,1.1 0.895,2 2,2 h 8 V 12.47 H 7 V 9.65 h 3 V 8.13 C 10,5.26 11.49,4 13.925,4 c 1.143,0 1.759,0.08 2.057,0.12 H 16 v 2.7 H 14.339 C 13.305,6.82 13,7.36 13,8.44 v 1.21 h 2.974 l -0.411,2.82 H 13 V 20 h 5 c 1.105,0 2,-0.9 2,-2 V 2 C 20,0.9 19.105,0 18,0 Z"
     fill="#7780a1"
     id="path346" />
  <defs
     id="defs819" />
</svg>
