<?xml version="1.0" encoding="UTF-8" standalone="no"?>
<svg
   width="20"
   height="20"
   viewBox="0 0 20 20"
   fill="none"
   version="1.1"
   id="svg821"
   sodipodi:docname="Details Page.svg"
   xmlns:inkscape="http://www.inkscape.org/namespaces/inkscape"
   xmlns:sodipodi="http://sodipodi.sourceforge.net/DTD/sodipodi-0.dtd"
   xmlns="http://www.w3.org/2000/svg"
   xmlns:svg="http://www.w3.org/2000/svg">
  <sodipodi:namedview
     id="namedview823"
     pagecolor="#ffffff"
     bordercolor="#000000"
     borderopacity="0.25"
     inkscape:showpageshadow="2"
     inkscape:pageopacity="0.0"
     inkscape:pagecheckerboard="0"
     inkscape:deskcolor="#d1d1d1"
     showgrid="false" />
  <path
     d="M 2,0 C 0.895,0 0,0.9 0,2 v 16 c 0,1.1 0.895,2 2,2 H 7.683 C 7.639,19.87 7.61,19.72 7.61,19.53 V 17.88 H 6.412 c -0.653,0 -1.233,-0.28 -1.515,-0.81 -0.094,-0.18 -0.165,-0.39 -0.24,-0.6 -0.171,-0.5 -0.361,-1.05 -0.9,-1.44 -0.23,-0.18 -0.055,-0.39 0.209,-0.36 0.489,0.14 0.895,0.48 1.276,0.98 0.38,0.51 0.559,0.62 1.269,0.62 0.344,0 0.859,-0.02 1.344,-0.09 C 8.116,15.5 8.566,14.89 9.117,14.6 5.941,14.26 4.425,12.66 4.425,10.49 4.425,9.56 4.819,8.65 5.487,7.89 5.268,7.13 4.992,5.59 5.571,5 7.001,5 7.865,5.94 8.072,6.19 8.784,5.95 9.566,5.81 10.388,5.81 c 0.824,0 1.609,0.14 2.323,0.38 C 12.916,5.94 13.781,5 15.213,5 c 0.582,0.59 0.303,2.14 0.081,2.89 0.665,0.76 1.056,1.67 1.056,2.6 0,2.17 -1.513,3.77 -4.685,4.11 0.873,0.46 1.509,1.75 1.509,2.73 v 2.2 c 0,0.08 -0.018,0.4 -0.027,0.47 H 18 c 1.105,0 2,-0.9 2,-2 V 2 C 20,0.9 19.105,0 18,0 Z"
     fill="#7780a1"
     id="path350" />
  <defs
     id="defs819" />
</svg>
