<?xml version="1.0" encoding="UTF-8" standalone="no"?>
<svg
   width="20"
   height="20"
   viewBox="0 0 20 20"
   fill="none"
   version="1.1"
   id="svg821"
   sodipodi:docname="Details Page.svg"
   xmlns:inkscape="http://www.inkscape.org/namespaces/inkscape"
   xmlns:sodipodi="http://sodipodi.sourceforge.net/DTD/sodipodi-0.dtd"
   xmlns="http://www.w3.org/2000/svg"
   xmlns:svg="http://www.w3.org/2000/svg">
  <sodipodi:namedview
     id="namedview823"
     pagecolor="#ffffff"
     bordercolor="#000000"
     borderopacity="0.25"
     inkscape:showpageshadow="2"
     inkscape:pageopacity="0.0"
     inkscape:pagecheckerboard="0"
     inkscape:deskcolor="#d1d1d1"
     showgrid="false" />
  <path
     fill-rule="evenodd"
     clip-rule="evenodd"
     d="m 6,0 h 8 c 3.314,0 6,2.69 6,6 v 8 c 0,3.31 -2.686,6 -6,6 H 6 C 2.686,20 0,17.31 0,14 V 6 C 0,2.69 2.686,0 6,0 Z m 10,3 c 0.5,0 1,0.5 1,1 0,0.5 -0.5,1 -1,1 -0.5,0 -1,-0.5 -1,-1 0,-0.5 0.5,-1 1,-1 z m -1,7 C 15,7.24 12.757,5 10,5 7.243,5 5,7.24 5,10 c 0,2.76 2.243,5 5,5 2.757,0 5,-2.24 5,-5 z M 10,7 c -1.657,0 -3,1.34 -3,3 0,1.66 1.343,3 3,3 1.657,0 3,-1.34 3,-3 0,-1.66 -1.343,-3 -3,-3 z"
     fill="#7780a1"
     id="path354" />
  <defs
     id="defs819" />
</svg>
