<?xml version="1.0" encoding="UTF-8" standalone="no"?>
<svg
   width="20"
   height="20"
   viewBox="0 0 20 20"
   fill="none"
   version="1.1"
   id="svg821"
   sodipodi:docname="Details Page.svg"
   xmlns:inkscape="http://www.inkscape.org/namespaces/inkscape"
   xmlns:sodipodi="http://sodipodi.sourceforge.net/DTD/sodipodi-0.dtd"
   xmlns="http://www.w3.org/2000/svg"
   xmlns:svg="http://www.w3.org/2000/svg">
  <sodipodi:namedview
     id="namedview823"
     pagecolor="#ffffff"
     bordercolor="#000000"
     borderopacity="0.25"
     inkscape:showpageshadow="2"
     inkscape:pageopacity="0.0"
     inkscape:pagecheckerboard="0"
     inkscape:deskcolor="#d1d1d1"
     showgrid="false" />
  <path
     fill-rule="evenodd"
     clip-rule="evenodd"
     d="M 18,0 H 2 C 0.895,0 0,0.9 0,2 v 16 c 0,1.1 0.895,2 2,2 h 16 c 1.105,0 2,-0.9 2,-2 V 2 C 20,0.9 19.105,0 18,0 Z M 4,4.56 C 4,5.43 4.7,6.13 5.566,6.13 6.43,6.13 7.132,5.43 7.132,4.56 7.132,3.7 6.43,3 5.566,3 4.701,3 4,3.7 4,4.56 Z M 4.25,16 H 6.937 V 7.36 H 4.25 Z M 17,16 h -2.685 v -4.2 c 0,-1 -0.018,-2.29 -1.396,-2.29 -1.398,0 -1.613,1.09 -1.613,2.22 V 16 H 8.622 V 7.36 h 2.577 v 1.18 h 0.036 C 11.594,7.86 12.47,7.15 13.777,7.15 16.497,7.15 17,8.94 17,11.26 Z"
     fill="#7780a1"
     id="path348" />
  <defs
     id="defs819" />
</svg>
