<?xml version="1.0" encoding="UTF-8" standalone="no"?>
<svg
   width="34.619995"
   height="82.129974"
   viewBox="0 0 34.619995 82.129974"
   fill="none"
   version="1.1"
   id="svg585"
   sodipodi:docname="Listing Page.svg"
   xmlns:inkscape="http://www.inkscape.org/namespaces/inkscape"
   xmlns:sodipodi="http://sodipodi.sourceforge.net/DTD/sodipodi-0.dtd"
   xmlns="http://www.w3.org/2000/svg"
   xmlns:svg="http://www.w3.org/2000/svg">
  <sodipodi:namedview
     id="namedview585"
     pagecolor="#ffffff"
     bordercolor="#000000"
     borderopacity="0.25"
     inkscape:showpageshadow="2"
     inkscape:pageopacity="0.0"
     inkscape:pagecheckerboard="0"
     inkscape:deskcolor="#d1d1d1" />
  <g
     clip-path="url(#clip0_4_3708)"
     id="g353"
     transform="translate(-1204.64,-367.22601)">
    <g
       clip-path="url(#clip6_4_3708)"
       id="g118">
      <path
         d="m 1204.64,408.291 c 0,21.151 15.19,38.418 34.62,41.065 v -22.563 c -7.88,-2.339 -13.51,-9.821 -13.51,-18.502 0,-8.681 5.63,-16.163 13.51,-18.502 v -22.563 c -19.43,2.647 -34.62,19.914 -34.62,41.065 z"
         fill="#76decc"
         id="path99" />
    </g>
    <mask
       id="mask0_4_3708"
       maskUnits="userSpaceOnUse"
       x="924"
       y="2968"
       width="101"
       height="138">
      <path
         d="m 938.506,3056.31 c 0.319,-6.16 1.009,-19.82 1.214,-25.13 0.255,-6.64 0.425,-14.56 -1.703,-24.87 -2.129,-10.3 7.237,-12.6 7.663,-5.96 0.426,6.64 -0.511,12.78 -0.511,16.35 0,3.58 0.332,8.21 0.166,10.21 -0.166,2.01 -0.566,4.51 0,4.46 0.566,-0.05 1.251,-0.87 1.959,1.02 0.708,1.88 3.303,8.18 4.814,15.57 0.736,3.27 1.015,4.24 1.062,4.32 0.157,-0.13 0.524,-0.15 0.731,0.87 0.26,1.28 1.345,4.44 1.511,5.38 0.132,0.76 0.275,-0.01 0.33,-0.49 0.417,-3.35 1.251,-10.52 1.251,-12.39 0,-2.34 -0.897,-10.53 -1.605,-13.74 -0.708,-3.21 -2.596,-10.64 -0.519,-13.52 2.077,-2.88 5.38,-3.59 7.056,0.62 1.675,4.2 1.274,17.88 1.227,21.02 -0.047,3.14 0.236,13.97 0.684,17.25 0.449,3.28 2.384,12.98 3.068,14.66 0.548,1.34 0.858,1.85 0.944,1.93 1.062,-1.57 3.431,-4.75 4.413,-4.91 1.227,-0.18 2.454,0.55 3.634,3.33 0.944,2.23 1.935,4.63 2.313,5.55 0.283,-0.68 1.01,-1.82 1.652,-0.95 0.642,0.87 1.73,2.35 2.195,2.98 1.29,-1.95 3.898,-5.87 4.011,-6 0.142,-0.16 0.59,0.19 0.118,1.8 -0.377,1.28 0.048,1.35 0.307,1.22 0.614,-1.9 1.855,-6.15 1.912,-7.93 0.07,-2.21 1.109,-7.03 3.233,-11.98 2.124,-4.96 3.422,-13.71 3.917,-17.25 0.397,-2.84 0.842,-13.63 1.015,-18.67 0.338,-4.22 0.845,-13.33 0.165,-16.05 -0.85,-3.4 -4.059,-14.3 -4.885,-19.07 -0.826,-4.76 -2.029,-9.06 3.327,-15.55 4.286,-5.19 8.125,2.24 9.515,6.61 0.28,2.74 0.57,9.45 -0.52,14.4 -1.37,6.18 -3.07,15.55 -2.67,21.19 0.4,5.64 1.39,21.73 1.82,25.74 0.42,4.01 2.17,14.59 4.6,23.06 2.43,8.47 5.99,16.12 6.54,19.23 0.54,3.12 1.1,4.41 1.6,4.84 0.5,0.42 0.57,0.73 2.29,-0.21 1.72,-0.95 2.9,-0.17 3.94,2.83 1.04,3 2.31,11.63 2.64,15.57 0.27,3.16 -65.521,1.32 -98.449,0 h -1.571 c 0.57,-1.03 1.809,-3.53 2.209,-5.26 0.5,-2.16 1.661,-10.26 2.112,-13.27 0.452,-3.02 1.338,-7.89 2.564,-7.55 1.225,0.34 1.805,1.18 2.192,0.95 0.387,-0.22 1.145,-0.82 0.968,-1.9 -0.178,-1.08 0.741,-7.9 1.338,-11.58 0.596,-3.67 1.499,-6.82 1.79,-7.35 0.29,-0.53 0.423,-0.43 0.423,-0.77 z"
         fill="#c4c4c4"
         id="path151" />
    </mask>
  </g>
  <defs
     id="defs585">
    <clipPath
       id="clip0_4_3708">
      <rect
         width="1920"
         height="7586"
         rx="20"
         fill="#ffffff"
         id="rect558"
         x="0"
         y="0" />
    </clipPath>
    <clipPath
       id="clip6_4_3708">
      <rect
         width="1920"
         height="1191"
         fill="#ffffff"
         id="rect564"
         x="0"
         y="0" />
    </clipPath>
  </defs>
</svg>
