<?xml version="1.0" encoding="UTF-8" standalone="no"?>
<svg
   width="49.680054"
   height="45"
   viewBox="0 0 49.680054 45"
   fill="none"
   version="1.1"
   id="svg2636"
   xmlns="http://www.w3.org/2000/svg"
   xmlns:svg="http://www.w3.org/2000/svg">
  <g
     clip-path="url(#clip0_4_3708)"
     id="g1237"
     transform="translate(-1228,-1011)">
    <g
       clip-path="url(#clip6_4_3708)"
       id="g394">
      <path
         fill-rule="evenodd"
         clip-rule="evenodd"
         d="m 1243.03,1048.77 h -1.07 l -0.66,5.59 h -0.24 l -0.82,-5.59 h -1.65 l -0.74,5.59 h -0.16 l -0.82,-5.59 h -1.07 l 0.99,7.23 h 1.8 l 0.82,-5.67 h 0.09 l 0.74,5.67 h 1.88 z m 1.64,7.23 h 1.15 v -2.71 h 2.3 v 2.71 h 1.15 v -7.14 h -1.15 v 2.71 h -2.3 v -2.71 h -1.15 z m 10.67,-3.86 c 0,-2.13 -0.98,-3.45 -2.79,-3.45 -1.97,0 -2.79,1.32 -2.79,3.45 0,1.97 0.66,3.86 2.79,3.86 2.06,0 2.79,-1.89 2.79,-3.86 z m 0.5,3.86 h 3.28 v -1.64 h -2.13 v -5.59 h -1.15 z m 11.17,-7.14 h -2.14 l -1.56,7.14 h 1.23 l 0.25,-1.31 h 2.3 l 0.24,1.31 h 1.15 z m -1.4,1.56 h 0.66 l 0.57,3.12 h -1.89 z m -30.3,5.58 v -1.64 h -2.38 v -1.4 h 2.38 v -0.98 h -2.38 v -1.56 h 2.38 v -1.65 h -3.53 v 5.75 l -1.97,-5.75 H 1228 v 7.23 h 1.15 l -0.08,-5.67 2.05,5.67 z m 24.31,0 h 3.28 v -1.64 h -2.14 v -5.59 h -1.14 z m 13.3,-1.48 -2.05,-5.75 h -1.81 v 7.23 h 1.15 l -0.08,-5.67 2.05,5.67 h 2.63 c 2.38,0 2.87,-1.23 2.87,-3.94 -0.08,-2.22 -0.74,-3.29 -2.87,-3.29 h -1.97 v 3.29 z m 1.15,-4.19 h 0.82 c 1.23,0 1.81,0.41 1.81,2.06 v -0.09 c 0,1.65 -0.58,2.14 -1.81,2.06 h -0.82 z m -19.79,1.81 c 0,1.07 -0.08,2.3 -1.73,2.3 -1.64,0 -1.8,-1.23 -1.8,-2.3 0,-0.99 0.49,-1.81 1.8,-1.81 1.32,0 1.73,0.82 1.73,1.81 z m -17,-26.61 c 0,-0.49 0.33,-0.82 0.57,-0.57 2.96,2.96 13.88,11 13.8,18.07 -0.08,0.41 -0.41,0.65 -0.82,0.65 -8.13,-0.57 -14.78,-3.77 -13.55,-18.15 z m 25.29,-12.56 c -2.3,-1.23 -4.68,-1.81 -7.55,-1.97 -0.58,0 -0.82,0.41 -0.91,0.9 -0.24,3.7 -0.16,5.75 -0.24,9.36 -0.09,0.58 0.33,1.32 0.98,0.5 3.04,-2.96 4.77,-4.6 7.8,-7.56 0.5,-0.41 0.33,-1.06 -0.08,-1.23 z m -19.71,0 c 2.38,-1.23 4.77,-1.81 7.64,-1.97 0.57,0 0.82,0.41 0.9,0.9 0.25,3.7 0.17,5.75 0.25,9.36 0.08,0.58 -0.33,1.32 -1.07,0.5 -3.04,-2.96 -4.76,-4.6 -7.72,-7.56 -0.57,-0.41 -0.33,-1.06 0,-1.23 z m 21.6,2.3 c -5.75,5.5 -10.84,9.2 -10.59,19.05 0,0.41 0.33,0.82 0.9,0.33 4.76,-4.68 7.47,-7.23 12.32,-11.91 0.74,-0.74 0.9,-1.39 0.65,-2.54 -0.49,-2.06 -0.9,-2.96 -2.13,-4.6 -0.33,-0.33 -0.66,-0.49 -1.15,-0.33 z m -23.4,0 c 5.74,5.5 10.84,9.2 10.59,19.05 0,0.41 -0.33,0.82 -0.9,0.33 -4.77,-4.68 -7.48,-7.23 -12.32,-11.91 -0.74,-0.74 -0.9,-1.39 -0.66,-2.54 0.49,-2.06 0.91,-2.96 2.14,-4.6 0.33,-0.33 0.65,-0.49 1.15,-0.33 z m 27.26,10.26 c 0,-0.49 -0.25,-0.82 -0.58,-0.57 -2.87,2.96 -13.87,11 -13.79,18.07 0.08,0.41 0.49,0.65 0.9,0.65 8.05,-0.57 14.7,-3.77 13.47,-18.15 z"
         fill="#bbc0d0"
         id="path314" />
    </g>
    <mask
       id="mask0_4_3708"
       maskUnits="userSpaceOnUse"
       x="924"
       y="2968"
       width="101"
       height="138">
      <path
         d="m 938.506,3056.31 c 0.319,-6.16 1.009,-19.82 1.214,-25.13 0.255,-6.64 0.425,-14.56 -1.703,-24.87 -2.129,-10.3 7.237,-12.6 7.663,-5.96 0.426,6.64 -0.511,12.78 -0.511,16.35 0,3.58 0.332,8.21 0.166,10.21 -0.166,2.01 -0.566,4.51 0,4.46 0.566,-0.05 1.251,-0.87 1.959,1.02 0.708,1.88 3.303,8.18 4.814,15.57 0.736,3.27 1.015,4.24 1.062,4.32 0.157,-0.13 0.524,-0.15 0.731,0.87 0.26,1.28 1.345,4.44 1.511,5.38 0.132,0.76 0.275,-0.01 0.33,-0.49 0.417,-3.35 1.251,-10.52 1.251,-12.39 0,-2.34 -0.897,-10.53 -1.605,-13.74 -0.708,-3.21 -2.596,-10.64 -0.519,-13.52 2.077,-2.88 5.38,-3.59 7.056,0.62 1.675,4.2 1.274,17.88 1.227,21.02 -0.047,3.14 0.236,13.97 0.684,17.25 0.449,3.28 2.384,12.98 3.068,14.66 0.548,1.34 0.858,1.85 0.944,1.93 1.062,-1.57 3.431,-4.75 4.413,-4.91 1.227,-0.18 2.454,0.55 3.634,3.33 0.944,2.23 1.935,4.63 2.313,5.55 0.283,-0.68 1.01,-1.82 1.652,-0.95 0.642,0.87 1.73,2.35 2.195,2.98 1.29,-1.95 3.898,-5.87 4.011,-6 0.142,-0.16 0.59,0.19 0.118,1.8 -0.377,1.28 0.048,1.35 0.307,1.22 0.614,-1.9 1.855,-6.15 1.912,-7.93 0.07,-2.21 1.109,-7.03 3.233,-11.98 2.124,-4.96 3.422,-13.71 3.917,-17.25 0.397,-2.84 0.842,-13.63 1.015,-18.67 0.338,-4.22 0.845,-13.33 0.165,-16.05 -0.85,-3.4 -4.059,-14.3 -4.885,-19.07 -0.826,-4.76 -2.029,-9.06 3.327,-15.55 4.286,-5.19 8.125,2.24 9.515,6.61 0.28,2.74 0.57,9.45 -0.52,14.4 -1.37,6.18 -3.07,15.55 -2.67,21.19 0.4,5.64 1.39,21.73 1.82,25.74 0.42,4.01 2.17,14.59 4.6,23.06 2.43,8.47 5.99,16.12 6.54,19.23 0.54,3.12 1.1,4.41 1.6,4.84 0.5,0.42 0.57,0.73 2.29,-0.21 1.72,-0.95 2.9,-0.17 3.94,2.83 1.04,3 2.31,11.63 2.64,15.57 0.27,3.16 -65.521,1.32 -98.449,0 h -1.571 c 0.57,-1.03 1.809,-3.53 2.209,-5.26 0.5,-2.16 1.661,-10.26 2.112,-13.27 0.452,-3.02 1.338,-7.89 2.564,-7.55 1.225,0.34 1.805,1.18 2.192,0.95 0.387,-0.22 1.145,-0.82 0.968,-1.9 -0.178,-1.08 0.741,-7.9 1.338,-11.58 0.596,-3.67 1.499,-6.82 1.79,-7.35 0.29,-0.53 0.423,-0.43 0.423,-0.77 z"
         fill="#c4c4c4"
         id="path514" />
    </mask>
  </g>
  <defs
     id="defs2634">
    <clipPath
       id="clip0_4_3708">
      <rect
         width="1920"
         height="7586"
         rx="20"
         fill="#ffffff"
         id="rect2481"
         x="0"
         y="0" />
    </clipPath>
    <clipPath
       id="clip6_4_3708">
      <rect
         width="1920"
         height="1191"
         fill="#ffffff"
         id="rect2499"
         x="0"
         y="0" />
    </clipPath>
  </defs>
</svg>
