<?xml version="1.0" encoding="UTF-8" standalone="no"?>
<svg
   width="60.143982"
   height="44.999573"
   viewBox="0 0 60.143982 44.999573"
   fill="none"
   version="1.1"
   id="svg2636"
   sodipodi:docname="Listing Page.svg"
   xmlns:inkscape="http://www.inkscape.org/namespaces/inkscape"
   xmlns:sodipodi="http://sodipodi.sourceforge.net/DTD/sodipodi-0.dtd"
   xmlns="http://www.w3.org/2000/svg"
   xmlns:svg="http://www.w3.org/2000/svg">
  <sodipodi:namedview
     id="namedview2638"
     pagecolor="#ffffff"
     bordercolor="#000000"
     borderopacity="0.25"
     inkscape:showpageshadow="2"
     inkscape:pageopacity="0.0"
     inkscape:pagecheckerboard="0"
     inkscape:deskcolor="#d1d1d1"
     showgrid="false" />
  <g
     clip-path="url(#clip0_4_3708)"
     id="g1237"
     transform="translate(-637,-1011.0004)">
    <g
       clip-path="url(#clip6_4_3708)"
       id="g394">
      <path
         fill-rule="evenodd"
         clip-rule="evenodd"
         d="m 697.042,1029.09 c -0.558,-3.21 -4.698,-3.52 -7.389,-3.03 -2.692,0.5 -6.003,1.93 -9.377,3.5 -1.295,0.6 -2.793,1.4 -4.238,2.19 -1.131,-0.2 -2.231,-0.35 -3.174,-0.35 -2.256,0 -4.16,0.81 -5.175,1.22 -1.014,0.42 -1.325,0.77 -1.242,0.98 0.083,0.21 0.663,0.1 1.615,-0.23 0.952,-0.33 1.76,-0.68 3.912,-0.91 0.733,-0.08 1.603,-0.01 2.564,0.13 -1.72,0.96 -3.215,1.81 -3.971,2.17 -1.572,0.74 -3.765,2.07 -7.74,2.21 -3.975,0.15 -5.154,-1.57 -6.458,-3.23 -1.304,-1.65 -2.566,-4.88 -3.829,-7.22 -1.263,-2.34 -4.057,-3.79 -4.057,-3.79 3.126,-0.72 5.899,-2.73 6.23,-5.82 0.331,-3.08 -1.655,-5.42 -5.36,-5.83 -3.706,-0.42 -6.893,0.89 -9.004,2.36 -2.112,1.47 -3.395,4.12 -2.981,5.79 0.414,1.68 1.635,1.97 2.567,1.7 0.931,-0.27 1.324,-1.3 1.2,-1.7 -0.124,-0.39 -0.6,-0.93 -1.035,-0.76 -0.435,0.16 -0.642,0.06 -0.642,0.06 -1.076,-1.14 -0.248,-3.48 2.071,-4.8 2.088,-1.2 3.926,-1.36 5.964,-1.06 -0.781,0.37 -1.531,0.81 -2.241,1.3 -1.635,1.14 -2.691,3.38 -2.96,6.19 -0.269,2.82 -0.166,4.12 -0.352,7.89 -0.186,3.77 -0.372,6.13 -1.055,6.93 -0.684,0.81 -2.029,1.45 -2.691,1.87 -0.663,0.41 -0.559,1.05 0.414,0.87 0.972,-0.19 2.112,-0.87 3.187,-1.39 1.077,-0.52 2.174,-0.81 3.975,-0.83 1.801,-0.02 1.738,0.04 1.842,-0.29 0.104,-0.33 -0.124,-0.39 -0.724,-0.89 -0.601,-0.5 -0.807,-0.79 -0.766,-2.03 0.029,-0.88 0.017,-5.6 0.007,-8.91 1.33,0.34 1.816,2.1 2.207,3.53 0.414,1.51 1.014,3.95 1.987,5.73 1.755,3.22 3.56,5.51 7.141,6.63 3.581,1.12 6.686,0 9.728,-1.16 2.787,-1.06 6.423,-3.39 9.274,-5.17 1.405,0.29 2.945,0.67 4.575,1.03 3.664,0.81 6.852,0.99 9.108,0.76 2.255,-0.22 7.452,-2.44 6.893,-5.64 z m -50.917,-7.24 c -0.002,-0.65 -0.003,-1.17 -0.003,-1.48 0,-1.78 -0.021,-5.03 1.2,-6.19 0.828,-0.78 1.221,-1.04 1.69,-1.18 1.564,0.58 1.833,1.76 1.976,3.17 0.166,1.64 -0.6,3.11 -2.008,4.39 -0.982,0.89 -2.206,1.19 -2.855,1.29 z m 41.914,11.4 c -2.608,0.22 -5.052,-0.25 -7.411,-0.63 -0.852,-0.13 -1.807,-0.33 -2.784,-0.52 3.004,-1.71 7.705,-3.41 10.257,-3.74 2.732,-0.35 3.912,0.48 3.871,1.93 -0.041,1.44 -1.325,2.73 -3.933,2.96 z m -27.46,-11.4 c 0.219,0.09 0.116,0.38 0.116,0.88 v 6.31 c 0,0.35 0.133,0.55 0.398,0.39 0.265,-0.17 0.829,-0.62 0.995,-0.55 0.166,0.06 0.548,0.23 0.034,1.06 -0.515,0.83 -1.46,1.96 -2.189,2.04 -0.73,0.08 -1.791,0 -2.238,-0.55 -0.448,-0.55 -0.631,-0.99 -0.631,-1.59 v -5.44 c 0,-0.45 -0.099,-0.46 -0.365,-0.46 -0.265,0 -0.712,-0.02 -0.762,-0.29 -0.05,-0.26 0.049,-0.38 0.497,-0.54 0.448,-0.17 2.968,-0.96 3.399,-1.1 0.431,-0.13 0.597,-0.23 0.746,-0.16 z m -2.155,-1.91 c 0.282,-0.78 0.348,-1.38 0.298,-1.76 -0.049,-0.38 -0.364,-0.54 -0.348,-0.69 0.016,-0.15 0.58,-0.34 1.227,-0.55 0.647,-0.22 1.26,-0.5 1.675,-0.6 0.414,-0.1 0.663,0.4 0.116,1.86 -0.547,1.46 -1.592,2.42 -2.155,2.75 -0.564,0.33 -0.941,0.47 -1.112,0.22 -0.099,-0.15 0.017,-0.45 0.299,-1.23 z m 10.181,8.87 c -0.713,0.8 -1.509,1.61 -2.753,1.35 -1.243,-0.27 -1.873,-1.28 -1.873,-2.39 v -5.16 c 0,-0.52 0.044,-0.57 -0.199,-0.66 -0.578,0.04 -0.956,-0.01 -0.929,-0.2 0.066,-0.5 0.497,-0.47 1.028,-0.93 0.531,-0.46 1.327,-1.31 1.94,-2.26 0.613,-0.94 0.862,-2.22 1.045,-2.75 0.182,-0.53 0.315,-0.76 0.597,-0.66 0.282,0.1 0.232,0.28 0.232,0.83 v 3.63 c 0.057,0.09 0.132,0.15 0.233,0.13 0.38,-0.05 0.746,-0.21 0.945,-0.2 0.198,0.02 0.265,0.3 0.265,0.55 0,0.23 -0.046,0.48 -1.443,0.97 v 5.91 c 0,0.47 -0.183,0.81 0.282,0.61 0.464,-0.19 0.896,-0.61 1.194,-0.49 0.298,0.11 0.149,0.93 -0.564,1.72 z m 7.235,-2.08 c -0.713,0.8 -1.509,1.61 -2.753,1.34 -1.243,-0.26 -1.873,-1.27 -1.873,-2.38 v -5.16 c 0,-0.52 0.044,-0.58 -0.2,-0.66 -0.577,0.04 -0.954,-0.01 -0.928,-0.2 0.067,-0.5 0.497,-0.47 1.028,-0.93 0.531,-0.47 1.327,-1.31 1.94,-2.26 0.614,-0.94 0.862,-2.22 1.045,-2.75 0.183,-0.53 0.315,-0.76 0.597,-0.66 0.282,0.1 0.232,0.28 0.232,0.83 v 3.63 c 0.057,0.09 0.132,0.14 0.233,0.13 0.381,-0.05 0.746,-0.21 0.945,-0.2 0.198,0.02 0.265,0.3 0.265,0.55 0,0.22 -0.046,0.48 -1.443,0.97 v 5.91 c 0,0.47 -0.182,0.81 0.282,0.61 0.464,-0.19 0.896,-0.61 1.194,-0.49 0.298,0.11 0.149,0.92 -0.564,1.72 z m 9.409,-11.02 c -0.752,-0.7 -2.153,-1.47 -4.05,-0.46 -1.898,1.01 -3.094,2.27 -4,5.02 -0.906,2.76 1.863,5.05 2.512,5.35 0.65,0.31 1.658,0.89 3.196,-0.15 1.539,-1.04 2.103,-2.12 2.273,-2.51 0.172,-0.4 -0.016,-0.96 -0.598,-0.57 -0.58,0.4 -1.384,1.37 -2.615,0.99 -0.921,-0.28 -1.296,-0.89 -1.534,-1.44 0.811,-0.53 3.339,-2.16 4.252,-2.76 1.094,-0.72 1.197,-0.7 1.367,-1.18 0.171,-0.48 -0.051,-1.59 -0.803,-2.29 z m -2.478,3.27 c -0.624,0.68 -1.421,1.28 -2.741,1.92 -0.206,-0.67 -0.309,-1.66 0.451,-3 0.991,-1.74 2.016,-2.27 2.444,-1.64 0.427,0.63 0.512,1.98 -0.154,2.72 z m 4.802,-3.47 c -0.216,-0.11 -0.341,-0.07 -0.615,-0.02 -0.274,0.05 -0.462,-0.16 -0.308,-0.36 0.155,-0.21 0.667,-0.58 1.145,-1.01 0.479,-0.43 0.958,-0.82 1.504,-0.77 0.548,0.05 1.232,0.1 1.864,1.22 0,0 0.922,-1.29 1.504,-1.61 0,0 0.854,0.87 1.401,1.14 0.547,0.28 0.871,0.47 1.385,0.06 0.512,-0.41 0.615,-0.48 0.768,-0.35 0.154,0.14 -0.034,0.84 -0.837,1.61 -0.804,0.77 -1.674,1.45 -2.444,1.23 -0.769,-0.22 -1.658,-0.87 -1.658,-0.87 v 4.97 c 0,0.41 0.12,0.43 0.513,0.24 0.393,-0.19 0.803,-0.56 1.025,-0.36 0.222,0.21 0.188,0.81 -0.718,1.73 -0.905,0.92 -1.042,1.25 -2.529,1.25 -1.487,0 -1.966,-1.63 -1.966,-2.07 v -5.61 c 0,-0.34 0.103,-0.36 -0.034,-0.42 z m -42.373,29.25 1.438,-2.85 c 0,0 -1.918,-1.18 -4.314,-1.18 -2.397,0 -3.987,1.11 -4.668,3.15 -0.681,2.04 0.227,4.24 1.236,4.72 1.009,0.48 2.826,1.11 3.633,1.46 0.807,0.36 1.237,1.57 0.581,2.17 -0.657,0.61 -2.145,1.14 -4.542,-0.93 l -1.564,2.9 c 0,0 2.094,1.69 4.642,1.69 2.548,0 4.692,-1.11 5.399,-3.46 0.706,-2.34 -0.151,-4.61 -2.346,-5.37 -2.195,-0.76 -3.659,-0.83 -3.482,-2.27 0.177,-1.44 2.725,-1.26 3.987,-0.03 z m 13.396,-1.19 c -0.783,-2.07 -3.356,-2.45 -4.011,-2.45 h -6.333 v 14.38 h 3.683 v -4.72 h 2.574 c 0.933,0 1.917,-0.07 3.33,-1.23 1.413,-1.17 1.539,-3.92 0.757,-5.98 z m -4.97,4.23 h -1.691 v -3.75 h 1.262 c 1.135,0 1.968,0.45 1.968,1.94 0,1.49 -0.833,1.81 -1.539,1.81 z m 13.9,-7.18 c -4.351,0 -7.879,3.44 -7.879,7.69 0,4.25 3.528,7.69 7.879,7.69 4.351,0 7.879,-3.44 7.879,-7.69 0,-4.25 -3.528,-7.69 -7.879,-7.69 z m 0,11.81 c -2.237,0 -4.05,-1.85 -4.05,-4.12 0,-2.28 1.813,-4.12 4.05,-4.12 2.237,0 4.051,1.84 4.051,4.12 0,2.27 -1.814,4.12 -4.051,4.12 z m 12.527,-2.33 3.422,5.39 h 4.602 l -4.4,-5.81 c 0,0 0.615,0 1.778,-0.72 1.161,-0.72 1.811,-3.15 1.093,-5.16 -0.718,-2.02 -3.008,-2.67 -4.307,-2.67 h -5.948 v 14.36 h 3.76 z m 2.052,-5.93 c 0.615,0.21 0.991,1.27 0.854,2.19 -0.136,0.92 -1.572,1.33 -2.051,1.33 h -0.855 V 1044 c 0.774,0 1.486,-0.02 2.052,0.17 z m 15.039,-3.04 H 687.3 v 3.04 h 3.076 v 11.32 h 3.692 v -11.32 h 3.076 z"
         fill="#bbc0d0"
         id="path302" />
    </g>
    <mask
       id="mask0_4_3708"
       maskUnits="userSpaceOnUse"
       x="924"
       y="2968"
       width="101"
       height="138">
      <path
         d="m 938.506,3056.31 c 0.319,-6.16 1.009,-19.82 1.214,-25.13 0.255,-6.64 0.425,-14.56 -1.703,-24.87 -2.129,-10.3 7.237,-12.6 7.663,-5.96 0.426,6.64 -0.511,12.78 -0.511,16.35 0,3.58 0.332,8.21 0.166,10.21 -0.166,2.01 -0.566,4.51 0,4.46 0.566,-0.05 1.251,-0.87 1.959,1.02 0.708,1.88 3.303,8.18 4.814,15.57 0.736,3.27 1.015,4.24 1.062,4.32 0.157,-0.13 0.524,-0.15 0.731,0.87 0.26,1.28 1.345,4.44 1.511,5.38 0.132,0.76 0.275,-0.01 0.33,-0.49 0.417,-3.35 1.251,-10.52 1.251,-12.39 0,-2.34 -0.897,-10.53 -1.605,-13.74 -0.708,-3.21 -2.596,-10.64 -0.519,-13.52 2.077,-2.88 5.38,-3.59 7.056,0.62 1.675,4.2 1.274,17.88 1.227,21.02 -0.047,3.14 0.236,13.97 0.684,17.25 0.449,3.28 2.384,12.98 3.068,14.66 0.548,1.34 0.858,1.85 0.944,1.93 1.062,-1.57 3.431,-4.75 4.413,-4.91 1.227,-0.18 2.454,0.55 3.634,3.33 0.944,2.23 1.935,4.63 2.313,5.55 0.283,-0.68 1.01,-1.82 1.652,-0.95 0.642,0.87 1.73,2.35 2.195,2.98 1.29,-1.95 3.898,-5.87 4.011,-6 0.142,-0.16 0.59,0.19 0.118,1.8 -0.377,1.28 0.048,1.35 0.307,1.22 0.614,-1.9 1.855,-6.15 1.912,-7.93 0.07,-2.21 1.109,-7.03 3.233,-11.98 2.124,-4.96 3.422,-13.71 3.917,-17.25 0.397,-2.84 0.842,-13.63 1.015,-18.67 0.338,-4.22 0.845,-13.33 0.165,-16.05 -0.85,-3.4 -4.059,-14.3 -4.885,-19.07 -0.826,-4.76 -2.029,-9.06 3.327,-15.55 4.286,-5.19 8.125,2.24 9.515,6.61 0.28,2.74 0.57,9.45 -0.52,14.4 -1.37,6.18 -3.07,15.55 -2.67,21.19 0.4,5.64 1.39,21.73 1.82,25.74 0.42,4.01 2.17,14.59 4.6,23.06 2.43,8.47 5.99,16.12 6.54,19.23 0.54,3.12 1.1,4.41 1.6,4.84 0.5,0.42 0.57,0.73 2.29,-0.21 1.72,-0.95 2.9,-0.17 3.94,2.83 1.04,3 2.31,11.63 2.64,15.57 0.27,3.16 -65.521,1.32 -98.449,0 h -1.571 c 0.57,-1.03 1.809,-3.53 2.209,-5.26 0.5,-2.16 1.661,-10.26 2.112,-13.27 0.452,-3.02 1.338,-7.89 2.564,-7.55 1.225,0.34 1.805,1.18 2.192,0.95 0.387,-0.22 1.145,-0.82 0.968,-1.9 -0.178,-1.08 0.741,-7.9 1.338,-11.58 0.596,-3.67 1.499,-6.82 1.79,-7.35 0.29,-0.53 0.423,-0.43 0.423,-0.77 z"
         fill="#c4c4c4"
         id="path514" />
    </mask>
  </g>
  <defs
     id="defs2634">
    <clipPath
       id="clip0_4_3708">
      <rect
         width="1920"
         height="7586"
         rx="20"
         fill="#ffffff"
         id="rect2481"
         x="0"
         y="0" />
    </clipPath>
    <clipPath
       id="clip6_4_3708">
      <rect
         width="1920"
         height="1191"
         fill="#ffffff"
         id="rect2499"
         x="0"
         y="0" />
    </clipPath>
  </defs>
</svg>
