<?xml version="1.0" encoding="UTF-8" standalone="no"?>
<svg
   width="20.023682"
   height="20.000763"
   viewBox="0 0 20.023682 20.000763"
   fill="none"
   version="1.1"
   id="svg821"
   sodipodi:docname="Details Page.svg"
   xmlns:inkscape="http://www.inkscape.org/namespaces/inkscape"
   xmlns:sodipodi="http://sodipodi.sourceforge.net/DTD/sodipodi-0.dtd"
   xmlns="http://www.w3.org/2000/svg"
   xmlns:svg="http://www.w3.org/2000/svg">
  <sodipodi:namedview
     id="namedview823"
     pagecolor="#ffffff"
     bordercolor="#000000"
     borderopacity="0.25"
     inkscape:showpageshadow="2"
     inkscape:pageopacity="0.0"
     inkscape:pagecheckerboard="0"
     inkscape:deskcolor="#d1d1d1"
     showgrid="false" />
  <g
     clip-path="url(#clip3_4_4133)"
     id="g42"
     transform="translate(-1645.98,-456.00092)">
    <path
       d="m 1662.11,468.223 c -0.63,10e-4 -1.25,0.155 -1.81,0.448 -0.55,0.294 -1.03,0.719 -1.39,1.239 l -5.42,-2.449 c 0.38,-0.931 0.38,-1.976 0,-2.907 l 5.42,-2.462 c 0.53,0.764 1.31,1.314 2.21,1.549 0.9,0.235 1.85,0.14 2.69,-0.267 0.83,-0.408 1.49,-1.101 1.86,-1.954 0.37,-0.853 0.42,-1.809 0.14,-2.696 -0.28,-0.886 -0.86,-1.644 -1.65,-2.135 -0.79,-0.492 -1.73,-0.684 -2.65,-0.543 -0.91,0.141 -1.75,0.606 -2.36,1.311 -0.6,0.706 -0.93,1.604 -0.93,2.533 0,0.22 0.03,0.439 0.07,0.655 l -5.76,2.617 c -0.56,-0.519 -1.25,-0.864 -1.99,-0.994 -0.75,-0.13 -1.52,-0.039 -2.22,0.261 -0.69,0.301 -1.28,0.798 -1.7,1.431 -0.42,0.633 -0.64,1.374 -0.64,2.132 0,0.758 0.22,1.499 0.63,2.134 0.41,0.635 1,1.135 1.7,1.438 0.69,0.304 1.46,0.398 2.21,0.271 0.75,-0.126 1.44,-0.469 2,-0.984 l 5.77,2.606 c -0.04,0.216 -0.06,0.435 -0.07,0.655 0,0.769 0.23,1.521 0.66,2.161 0.43,0.639 1.03,1.138 1.74,1.432 0.71,0.295 1.5,0.372 2.25,0.222 0.75,-0.15 1.45,-0.521 1.99,-1.065 0.55,-0.544 0.92,-1.237 1.07,-1.991 0.15,-0.755 0.07,-1.537 -0.23,-2.247 -0.29,-0.711 -0.79,-1.318 -1.43,-1.746 -0.64,-0.427 -1.39,-0.655 -2.16,-0.655 z m 0,-10.556 c 0.44,0 0.87,0.13 1.24,0.375 0.36,0.244 0.65,0.591 0.81,0.997 0.17,0.406 0.22,0.853 0.13,1.284 -0.08,0.431 -0.3,0.827 -0.61,1.138 -0.31,0.311 -0.7,0.523 -1.13,0.609 -0.44,0.085 -0.88,0.041 -1.29,-0.127 -0.4,-0.168 -0.75,-0.453 -1,-0.818 -0.24,-0.366 -0.37,-0.796 -0.37,-1.235 0,-0.589 0.23,-1.154 0.65,-1.571 0.42,-0.417 0.98,-0.651 1.57,-0.652 z m -12.22,10.556 c -0.44,0 -0.87,-0.13 -1.24,-0.374 -0.36,-0.244 -0.65,-0.591 -0.81,-0.997 -0.17,-0.406 -0.22,-0.853 -0.13,-1.284 0.08,-0.432 0.3,-0.828 0.61,-1.139 0.31,-0.31 0.7,-0.522 1.13,-0.608 0.44,-0.086 0.88,-0.042 1.29,0.126 0.4,0.168 0.75,0.453 1,0.819 0.24,0.365 0.37,0.795 0.37,1.235 0,0.589 -0.23,1.154 -0.65,1.57 -0.42,0.417 -0.98,0.651 -1.57,0.652 z m 12.22,6.111 c -0.44,0 -0.87,-0.13 -1.23,-0.375 -0.37,-0.244 -0.65,-0.591 -0.82,-0.997 -0.17,-0.406 -0.21,-0.853 -0.13,-1.284 0.09,-0.431 0.3,-0.827 0.61,-1.138 0.31,-0.311 0.71,-0.523 1.14,-0.608 0.43,-0.086 0.88,-0.042 1.28,0.126 0.41,0.168 0.75,0.453 1,0.819 0.24,0.365 0.37,0.795 0.37,1.235 0,0.589 -0.23,1.154 -0.65,1.571 -0.41,0.416 -0.98,0.651 -1.57,0.651 z"
       fill="#7780a1"
       id="path40" />
  </g>
  <defs
     id="defs819">
    <clipPath
       id="clip3_4_4133">
      <rect
         width="20"
         height="20"
         fill="#ffffff"
         transform="translate(1646,456)"
         id="rect789"
         x="0"
         y="0" />
    </clipPath>
  </defs>
</svg>
