<?xml version="1.0" encoding="UTF-8" standalone="no"?>
<svg
   width="14.219971"
   height="16"
   viewBox="0 0 14.219971 16"
   fill="none"
   version="1.1"
   id="svg821"
   sodipodi:docname="Details Page.svg"
   xmlns:inkscape="http://www.inkscape.org/namespaces/inkscape"
   xmlns:sodipodi="http://sodipodi.sourceforge.net/DTD/sodipodi-0.dtd"
   xmlns="http://www.w3.org/2000/svg"
   xmlns:svg="http://www.w3.org/2000/svg">
  <sodipodi:namedview
     id="namedview823"
     pagecolor="#ffffff"
     bordercolor="#000000"
     borderopacity="0.25"
     inkscape:showpageshadow="2"
     inkscape:pageopacity="0.0"
     inkscape:pagecheckerboard="0"
     inkscape:deskcolor="#d1d1d1"
     showgrid="false" />
  <path
     d="M 5,0 C 4.72,0 4.5,0.22 4.5,0.5 4.5,0.78 4.72,1 5,1 H 9 C 9.28,1 9.5,0.78 9.5,0.5 9.5,0.22 9.28,0 9,0 Z m 7.66,1.93 c -0.2,-0.2 -0.52,-0.2 -0.71,0 -0.2,0.19 -0.2,0.51 0,0.71 l 1.41,1.41 c 0.2,0.2 0.52,0.2 0.71,0 0.2,-0.19 0.2,-0.51 0,-0.71 z M 7,4 C 6.72,4 6.5,4.22 6.5,4.5 v 5 C 6.5,9.78 6.72,10 7,10 7.28,10 7.5,9.78 7.5,9.5 v -5 C 7.5,4.22 7.28,4 7,4 Z m 0,12 c 3.87,0 7,-3.13 7,-7 C 14,5.13 10.87,2 7,2 3.13,2 0,5.13 0,9 c 0,3.87 3.13,7 7,7 z M 7,15 C 3.69,15 1,12.31 1,9 1,5.69 3.69,3 7,3 c 3.31,0 6,2.69 6,6 0,3.31 -2.69,6 -6,6 z"
     fill="#ffffff"
     id="path270" />
  <defs
     id="defs819" />
</svg>
