<?xml version="1.0" encoding="UTF-8" standalone="no"?>
<svg
   width="20"
   height="20"
   viewBox="0 0 20 20"
   fill="none"
   version="1.1"
   id="svg821"
   sodipodi:docname="Details Page.svg"
   xmlns:inkscape="http://www.inkscape.org/namespaces/inkscape"
   xmlns:sodipodi="http://sodipodi.sourceforge.net/DTD/sodipodi-0.dtd"
   xmlns="http://www.w3.org/2000/svg"
   xmlns:svg="http://www.w3.org/2000/svg">
  <sodipodi:namedview
     id="namedview823"
     pagecolor="#ffffff"
     bordercolor="#000000"
     borderopacity="0.25"
     inkscape:showpageshadow="2"
     inkscape:pageopacity="0.0"
     inkscape:pagecheckerboard="0"
     inkscape:deskcolor="#d1d1d1"
     showgrid="false" />
  <path
     fill-rule="evenodd"
     clip-rule="evenodd"
     d="M 18,0 H 2 C 0.895,0 0,0.9 0,2 v 16 c 0,1.1 0.895,2 2,2 h 16 c 1.105,0 2,-0.9 2,-2 V 2 C 20,0.9 19.105,0 18,0 Z M 15.35,6.24 C 15.931,6.17 16.485,6.02 17,5.8 c -0.385,0.56 -0.872,1.05 -1.434,1.44 0.006,0.12 0.008,0.24 0.008,0.36 0,3.67 -2.888,7.9 -8.171,7.9 -1.622,0 -3.132,-0.46 -4.403,-1.25 0.225,0.03 0.454,0.04 0.685,0.04 1.347,0 2.585,-0.44 3.568,-1.19 -1.257,-0.02 -2.318,-0.82 -2.683,-1.93 0.175,0.04 0.355,0.05 0.54,0.05 0.262,0 0.516,-0.03 0.757,-0.09 C 4.552,10.87 3.563,9.75 3.563,8.4 V 8.37 C 3.95,8.58 4.393,8.7 4.864,8.72 4.093,8.22 3.586,7.37 3.586,6.4 3.586,5.89 3.728,5.42 3.975,5.01 5.392,6.69 7.508,7.79 9.895,7.91 9.846,7.71 9.82,7.49 9.82,7.28 c 0,-1.54 1.286,-2.78 2.872,-2.78 0.826,0 1.573,0.34 2.097,0.88 0.654,-0.13 1.269,-0.36 1.824,-0.68 -0.214,0.65 -0.669,1.2 -1.263,1.54 z"
     fill="#7780a1"
     id="path352" />
  <defs
     id="defs819" />
</svg>
